<svg xmlns="http://www.w3.org/2000/svg" xmlns:xlink="http://www.w3.org/1999/xlink" width="247" height="82" version="1.1" viewBox="0 0 247 82"><title>Zaibatsu</title><g fill="none" fill-rule="evenodd" stroke="none" stroke-width="1"><g fill="#1D1D1B"><g fill-rule="nonzero"><path d="M25.6066496,13.753138 L1.1831623,13.753138 C0.71450964,13.753138 0.331457426,13.3689131 0.331457426,12.898697 L0.331457426,9.82997972 C0.331457426,9.30113314 0.540572665,8.79417527 0.913462269,8.42050392 L7.42574077,1.8879002 L4.05957173,1.8879002 L5.83529235,0.106707402 L19.2452468,0.106707402 L17.4691353,1.8879002 L14.1205554,1.8879002 L7.02627204,9.00446311 L22.5136984,9.00446311 C22.6751276,9.00446311 22.883852,9.11273399 22.9772698,9.24484792 L25.8384353,13.3040288 C26.0123723,13.5510584 25.9080101,13.753138 25.6066496,13.753138" transform="translate(52.500000, 20.000000) translate(6.644785, 21.478011)"/></g><g fill-rule="nonzero"><path d="M3.76759213,4.83701137 L19.2542368,4.83701137 L12.1595626,11.9527926 L8.79417527,11.9527926 L7.01923638,13.7332036 L20.4291908,13.7332036 L22.2037388,11.9527926 L18.8555498,11.9527926 L25.3678283,5.42097057 C25.7407179,5.04690835 25.950224,4.53995047 25.950224,4.0111039 L25.950224,0.94238662 C25.950224,0.472170484 25.5667809,0.0879456614 25.0981283,0.0879456614 L0.67425007,0.0879456614 C0.372889604,0.0879456614 0.268527419,0.290025248 0.442464394,0.537054839 L3.30362991,4.5962357 C3.41033731,4.74711136 3.58310168,4.83701137 3.76759213,4.83701137" transform="translate(52.500000, 20.000000) translate(6.644785, 6.664092)"/></g><path fill-rule="nonzero" d="M37.9909641,40.6336316 L1.57989682,40.6336316 L1.57989682,1.34889101 L37.9909641,1.34889101 L37.9909641,40.6336316 Z M0.230614944,41.9829135 L39.340246,41.9829135 L39.340246,0 L0.230614944,0 L0.230614944,41.9829135 Z" transform="translate(52.500000, 20.000000)"/><g transform="translate(52.500000, 20.000000) translate(45.340876, 26.991892)"><rect width="1.12" height="8.397" x=".159" y=".365"/></g><g fill-rule="nonzero" transform="translate(52.500000, 20.000000) translate(51.594790, 26.991657)"><polygon points="6.391 .365 6.391 8.763 5.271 8.763 1.271 2.033 1.271 8.763 .221 8.763 .221 .365 1.434 .365 5.353 6.966 5.353 .365"/></g><g fill-rule="nonzero" transform="translate(52.500000, 20.000000) translate(61.366530, 26.991813)"><polygon points="3.808 1.38 3.808 8.763 2.688 8.763 2.688 1.38 .285 1.38 .285 .365 6.211 .365 6.211 1.38"/></g><g fill-rule="nonzero" transform="translate(52.500000, 20.000000) translate(71.138270, 26.991657)"><polygon points="5.629 .365 5.629 1.392 1.466 1.392 1.466 3.958 4.929 3.958 4.929 4.984 1.466 4.984 1.466 7.736 5.629 7.736 5.629 8.763 .346 8.763 .346 .365"/></g><g fill-rule="nonzero"><path d="M4.12719217,4.38907481 C4.54698613,4.38907481 4.76860919,4.16745174 4.76860919,3.74765778 L4.76860919,2.0215776 C4.76860919,1.60178365 4.54698613,1.38016058 4.12719217,1.38016058 L1.28166144,1.38016058 L1.28166144,4.38907481 L4.12719217,4.38907481 Z M4.9202666,8.7629057 L3.25242599,5.4037723 L1.28166144,5.4037723 L1.28166144,8.7629057 L0.161820017,8.7629057 L0.161820017,0.365463082 L4.2553974,0.365463082 C5.31699925,0.365463082 5.88845061,0.936914446 5.88845061,1.99812543 L5.88845061,3.77110996 C5.88845061,4.75102006 5.39830013,5.32208056 4.47702047,5.39204621 L6.14486108,8.7629057 L4.9202666,8.7629057 Z" transform="translate(52.500000, 20.000000) translate(80.910010, 26.991813)"/></g><g fill-rule="nonzero"><path d="M3.64016864,1.5431532 L2.35694372,5.47373796 L4.92300269,5.47373796 L3.64016864,1.5431532 Z M2.01884152,6.50016155 L1.28439753,8.76251483 L0.117651751,8.76251483 L3.01008684,0.365463082 L4.32809915,0.365463082 L7.20880814,8.76251483 L5.99593976,8.76251483 L5.2611049,6.50016155 L2.01884152,6.50016155 Z" transform="translate(52.500000, 20.000000) translate(90.290881, 26.991579)"/></g><g fill-rule="nonzero"><path d="M1.84490454,8.7629057 C0.78369356,8.7629057 0.211851326,8.19145433 0.211851326,7.13024335 L0.211851326,1.99812543 C0.211851326,0.937305315 0.78369356,0.365463082 1.84490454,0.365463082 L4.36405915,0.365463082 C5.42527013,0.365463082 5.9967215,0.937305315 5.9967215,1.99812543 L5.9967215,3.0362751 L4.87727094,3.0362751 L4.87727094,2.03330369 C4.87727094,1.61350973 4.65564788,1.39227754 4.24758001,1.39227754 L1.97310977,1.39227754 C1.55331581,1.39227754 1.33169275,1.61350973 1.33169275,2.03330369 L1.33169275,7.09506509 C1.33169275,7.51485905 1.55331581,7.73687298 1.97310977,7.73687298 L4.24758001,7.73687298 C4.65564788,7.73687298 4.87727094,7.51485905 4.87727094,7.09506509 L4.87727094,6.09209368 L5.9967215,6.09209368 L5.9967215,7.13024335 C5.9967215,8.19145433 5.42527013,8.7629057 4.36405915,8.7629057 L1.84490454,8.7629057 Z" transform="translate(52.500000, 20.000000) translate(100.844360, 26.991501)"/></g><g fill-rule="nonzero" transform="translate(52.500000, 20.000000) translate(110.225231, 26.991813)"><polygon points="3.737 1.38 3.737 8.763 2.618 8.763 2.618 1.38 .215 1.38 .215 .365 6.14 .365 6.14 1.38"/></g><g transform="translate(52.500000, 20.000000) translate(119.996971, 26.991892)"><rect width="1.119" height="8.397" x=".364" y=".365"/></g><g fill-rule="nonzero" transform="translate(52.500000, 20.000000) translate(125.078276, 26.991501)"><polygon points="4.066 8.763 2.772 8.763 .054 .365 1.279 .365 3.425 7.527 5.606 .365 6.784 .365"/></g><g fill-rule="nonzero" transform="translate(52.500000, 20.000000) translate(134.850016, 26.991657)"><polygon points="5.306 .365 5.306 1.392 1.142 1.392 1.142 3.958 4.606 3.958 4.606 4.984 1.142 4.984 1.142 7.736 5.306 7.736 5.306 8.763 .023 8.763 .023 .365"/></g><g fill-rule="nonzero"><path d="M12.05051,10.0371406 L12.05051,13.5338601 C12.05051,15.6578455 10.9091707,16.7991848 8.78518526,16.7991848 L3.32708209,16.7991848 C1.20309665,16.7991848 0.0617573977,15.6578455 0.0617573977,13.5338601 L0.0617573977,10.8720381 L3.32708209,11.2472729 L3.32708209,13.300511 C3.32708209,13.6046075 3.48968384,13.7672093 3.79338953,13.7672093 L8.22702347,13.7672093 C8.52682045,13.7672093 8.69372178,13.6046075 8.69372178,13.300511 L8.69372178,10.1305584 C8.69372178,9.82646189 8.52682045,9.66425101 8.22702347,9.66425101 L3.46662254,9.66425101 C2.01297847,9.66425101 1.01782445,9.26673662 0.534709621,8.24617608 C0.313868294,7.77556907 0.201297847,7.20489945 0.201297847,6.53885764 L0.201297847,3.2715786 C0.201297847,1.15150186 1.34693666,0.0062539137 3.46662254,0.0062539137 L8.50610437,0.0062539137 C10.6261811,0.0062539137 11.7714291,1.15150186 11.7714291,3.2715786 L11.7714291,5.37484795 L8.50610437,5.09342184 L8.50610437,3.50492776 C8.50610437,3.2047399 8.34389348,3.03822945 8.03979693,3.03822945 L4.0290839,3.03822945 C3.72498735,3.03822945 3.56238559,3.2047399 3.56238559,3.50492776 L3.56238559,6.30550848 C3.56238559,6.60960504 3.72498735,6.77181592 4.0290839,6.77181592 L8.78518526,6.77181592 C10.2431289,6.77181592 11.2343742,7.30926163 11.717489,8.3294313 C11.9379395,8.80003831 12.05051,9.37070793 12.05051,10.0371406" transform="translate(52.500000, 20.000000) translate(114.524796, 7.197629)"/></g><g fill-rule="nonzero" transform="translate(52.500000, 20.000000) translate(44.559137, 7.200991)"><polygon points="7.659 2.99 .429 2.99 .429 .004 11.811 .004 11.811 2.524 4.161 13.812 11.014 13.812 11.764 16.797 .009 16.797 .009 14.278"/></g><g fill-rule="nonzero"><path d="M7.51446818,3.36304209 L5.67190885,9.94020495 L9.3570275,9.94020495 L7.51446818,3.36304209 Z M4.80886876,13.018694 L3.75938387,16.7972304 L0.214196544,16.7972304 L5.55542971,0.00429956567 L9.61343796,0.00429956567 L14.9546711,16.7972304 L11.2695525,16.7972304 L10.2200676,13.018694 L4.80886876,13.018694 Z" transform="translate(52.500000, 20.000000) translate(55.894356, 7.201225)"/></g><g transform="translate(52.500000, 20.000000) translate(71.138270, 7.200991)"><polygon points="3.699 .004 .34 .004 .34 14.847 .997 16.797 3.699 16.797"/></g><g fill-rule="nonzero"><path d="M8.39783348,13.7656458 C8.7011483,13.7656458 8.86453179,13.6026532 8.86453179,13.2989475 L8.86453179,10.1274315 C8.86453179,9.82411668 8.7011483,9.66112405 8.39783348,9.66112405 L3.59326429,9.66112405 L3.59326429,13.7656458 L8.39783348,13.7656458 Z M8.21099781,6.76868897 C8.51431263,6.76868897 8.67769612,6.60569634 8.67769612,6.30238153 L8.67769612,3.50336428 C8.67769612,3.20044033 8.51431263,3.03705684 8.21099781,3.03705684 L3.59326429,3.03705684 L3.59326429,6.76868897 L8.21099781,6.76868897 Z M8.77111396,0.00469043527 C10.8935359,0.00469043527 12.0360478,1.14759316 12.0360478,3.27040599 L12.0360478,5.6957519 C12.0360478,6.69872331 11.639706,7.58521557 10.5667689,8.21490651 C11.7331238,8.77463179 12.2228834,9.73108971 12.2228834,10.7340611 L12.2228834,13.5326875 C12.2228834,15.6547186 11.0799807,16.7976213 8.95755876,16.7976213 L0.234521764,16.7976213 L0.234521764,0.00469043527 L8.77111396,0.00469043527 Z" transform="translate(52.500000, 20.000000) translate(77.783053, 7.200834)"/></g><g fill-rule="nonzero"><path d="M7.59186036,3.36304209 L5.74930103,9.94020495 L9.43441968,9.94020495 L7.59186036,3.36304209 Z M4.88626094,13.018694 L3.83677605,16.7972304 L0.291588726,16.7972304 L5.63282189,0.00429956567 L9.69083014,0.00429956567 L15.0320633,16.7972304 L11.3469447,16.7972304 L10.2974598,13.018694 L4.88626094,13.018694 Z" transform="translate(52.500000, 20.000000) translate(89.900011, 7.201225)"/></g><g fill-rule="nonzero" transform="translate(52.500000, 20.000000) translate(102.407839, 7.201538)"><polygon points="7.799 3.036 7.799 16.797 4.441 16.797 4.441 3.036 .9 3.036 .056 .004 12.184 .004 11.246 3.036"/></g><g fill-rule="nonzero"><path d="M12.3198191,13.5319058 C12.3198191,15.6543277 11.1769164,16.7972304 9.05449442,16.7972304 L3.36382383,16.7972304 C1.24140187,16.7972304 0.0984991407,15.6543277 0.0984991407,13.5319058 L0.0984991407,0.00429956567 L3.4568508,0.00429956567 L3.4568508,13.2520431 C3.4568508,13.5549671 3.62023429,13.7187414 3.92315824,13.7187414 L8.49476915,13.7187414 C8.79808396,13.7187414 8.96107659,13.5549671 8.96107659,13.2520431 L8.96107659,0.00429956567 L12.3198191,0.00429956567 L12.3198191,13.5319058 Z" transform="translate(52.500000, 20.000000) translate(128.205233, 7.201460)"/></g></g></g></svg>